<?xml version="1.0" standalone="no"?>
<!DOCTYPE svg PUBLIC "-//W3C//DTD SVG 20010904//EN"
 "http://www.w3.org/TR/2001/REC-SVG-20010904/DTD/svg10.dtd">
<svg version="1.0" xmlns="http://www.w3.org/2000/svg"
 width="700.000000pt" height="700.000000pt" viewBox="0 0 700.000000 700.000000"
 preserveAspectRatio="xMidYMid meet">
<metadata>
Created by potrace 1.11, written by Peter Selinger 2001-2013
</metadata>
<g transform="translate(0.000000,700.000000) scale(0.100000,-0.100000)"
fill="#000000" stroke="none">
<path d="M1540 6342 c-7 -3 -10 -303 -10 -876 l0 -872 -431 0 c-277 1 -433 -3
-437 -9 -11 -17 -8 -425 3 -428 6 -1 202 -2 438 -2 l427 1 0 -656 0 -656 -427
1 c-236 1 -432 0 -438 -2 -15 -5 -13 -422 2 -431 6 -4 202 -7 435 -6 l423 0 5
-875 5 -875 1955 -1 c1075 -1 1961 1 1968 3 9 3 12 187 12 876 l0 872 435 0
c239 -1 435 1 436 4 7 35 2 423 -6 429 -5 4 -202 7 -437 6 l-428 0 0 655 0
656 437 0 437 0 1 210 c0 115 -3 214 -6 219 -5 6 -161 10 -438 9 l-431 0 0
873 c0 691 -3 873 -12 874 -34 3 -3909 4 -3918 1z m3490 -1092 l0 -656 -863 1
c-474 0 -867 -1 -874 -3 -17 -5 -16 -429 1 -434 6 -2 399 -3 874 -3 l862 1 0
-656 0 -655 -874 0 -874 0 0 -217 c0 -194 1 -216 16 -220 9 -2 403 -3 875 -2
l857 0 -2 -655 -3 -656 -1527 -1 -1528 0 0 2406 0 2406 1530 0 1530 0 0 -656z"/>
</g>
</svg>
