<svg xmlns="http://www.w3.org/2000/svg" width="180" height="52" viewBox="0 0 180 52">
	<path fill="hsla(135, 50%, 50%, 1)" d="M39,23V21H35V13H17v8H13v2h4v6H13v2h4v8H35V31h4V29H35V23Zm-6-2H25v2h8v6H25v2h8v6H19V15H33Zm19-1.5h8.425v1.795H54V25.26h5.485v1.775H54v3.67h6.425V32.5H52Zm16.8694,9.4077L65.8911,19.5H63.819l4.2726,13h1.5556l4.3091-13H71.8477ZM82.2965,19.5l4.7655,13H84.9375l-.8446-2.4639H78.89L78.0457,32.5h-2.125l4.7655-13Zm1.2412,8.8325-2-5.8511-2.0556,5.8511ZM93.22,19.5h-2v13h8.3516V30.7036H93.22Zm30.05,0,4.7655,13h-2.125l-.8446-2.4639h-5.2031L119.0188,32.5h-2.1245l4.765-13Zm1.2408,8.8325-2-5.8511-2.0557,5.8511Zm5.4057-7.0361h3.6294V32.5h2V21.2964h3.6294V19.5h-9.2583ZM167,32.5h-2.3292l-2.6853-5.3711h-2.5V32.5h-2v-13h5.11a3.7715,3.7715,0,0,1,4.0923,3.8516,3.462,3.462,0,0,1-2.6294,3.4995Zm-4.5516-7.0747a2.0713,2.0713,0,1,0,0-4.1289h-2.9629v4.1289ZM152.3024,26c.0008,2.4732.0194,3.916-1.2593,5.1942a4.9867,4.9867,0,0,1-6.9439,0c-1.2782-1.2782-1.2775-2.721-1.2773-5.1942s-.0008-3.9161,1.2773-5.1942a4.9867,4.9867,0,0,1,6.9439,0C152.3217,22.0839,152.3032,23.5266,152.3024,26Zm-2,0c-.0034-2.5624-.1377-3.2964-.7775-3.9906a2.7709,2.7709,0,0,0-3.9253,0c-.6392.6942-.7735,1.4282-.7769,3.9906.0034,2.5624.1377,3.2964.7769,3.9906a2.7709,2.7709,0,0,0,3.9253,0C150.1643,29.2964,150.2986,28.5624,150.302,26ZM110.94,27.954a2.7337,2.7337,0,1,1-5.4624,0V19.5h-2v8.5468a4.7344,4.7344,0,0,0,9.4619,0V19.5H110.94Z"/>
</svg>
